<svg version="1.1" xmlns="http://www.w3.org/2000/svg" xmlns:xlink="http://www.w3.org/1999/xlink" width="1501.5288146383807" height="914.989832411849"><defs/><g transform="scale(1.5,1.5) translate(-252.2283638294913,-76.8722779697957)"><g><path fill="white" stroke="#505050" paint-order="fill stroke markers" d=" M 316.16761779785156 114.8501501083374 L 316.16761779785156 158.8501501083374 Q 316.16761779785156 166.8501501083374 324.16761779785156 166.8501501083374 L 408.16761779785156 166.8501501083374 Q 416.16761779785156 166.8501501083374 416.16761779785156 158.8501501083374 L 416.16761779785156 114.8501501083374 Q 416.16761779785156 106.8501501083374 408.16761779785156 106.8501501083374 L 324.16761779785156 106.8501501083374 Q 316.16761779785156 106.8501501083374 316.16761779785156 114.8501501083374" stroke-miterlimit="10" stroke-width="0.5" stroke-dasharray=""/><path fill="none" stroke="#505050" paint-order="fill stroke markers" d=" M 316.16761779785156 126.8501501083374 L 416.16761779785156 126.8501501083374" stroke-miterlimit="10" stroke-width="0.5" stroke-dasharray=""/><text fill="#505050" stroke="none" font-family="monospace" font-size="14px" font-style="normal" font-weight="normal" text-decoration="normal" x="324.16761779785156" y="120.8501501083374" text-anchor="start" dominant-baseline="alphabetic">Off</text><path fill="#505050" stroke="#505050" paint-order="fill stroke markers" d=" M 297.8494415283203 106.77768802642822 A 8 8 0 1 1 297.84943752832066 106.76968802776155" stroke-miterlimit="10" stroke-width="0.25" stroke-dasharray=""/><path fill="white" stroke="#505050" paint-order="fill stroke markers" d=" M 361.76063537597656 257.91120052337646 L 361.76063537597656 301.91120052337646 Q 361.76063537597656 309.91120052337646 369.76063537597656 309.91120052337646 L 453.76063537597656 309.91120052337646 Q 461.76063537597656 309.91120052337646 461.76063537597656 301.91120052337646 L 461.76063537597656 257.91120052337646 Q 461.76063537597656 249.91120052337646 453.76063537597656 249.91120052337646 L 369.76063537597656 249.91120052337646 Q 361.76063537597656 249.91120052337646 361.76063537597656 257.91120052337646" stroke-miterlimit="10" stroke-width="0.5" stroke-dasharray=""/><path fill="none" stroke="#505050" paint-order="fill stroke markers" d=" M 361.76063537597656 269.91120052337646 L 461.76063537597656 269.91120052337646" stroke-miterlimit="10" stroke-width="0.5" stroke-dasharray=""/><text fill="#505050" stroke="none" font-family="monospace" font-size="14px" font-style="normal" font-weight="normal" text-decoration="normal" x="369.76063537597656" y="263.91120052337646" text-anchor="start" dominant-baseline="alphabetic">Idle</text><path fill="white" stroke="#505050" paint-order="fill stroke markers" d=" M 551.6044158935547 177.4921636581421 L 551.6044158935547 221.4921636581421 Q 551.6044158935547 229.4921636581421 559.6044158935547 229.4921636581421 L 643.6044158935547 229.4921636581421 Q 651.6044158935547 229.4921636581421 651.6044158935547 221.4921636581421 L 651.6044158935547 177.4921636581421 Q 651.6044158935547 169.4921636581421 643.6044158935547 169.4921636581421 L 559.6044158935547 169.4921636581421 Q 551.6044158935547 169.4921636581421 551.6044158935547 177.4921636581421" stroke-miterlimit="10" stroke-width="0.5" stroke-dasharray=""/><path fill="none" stroke="#505050" paint-order="fill stroke markers" d=" M 551.6044158935547 189.4921636581421 L 651.6044158935547 189.4921636581421" stroke-miterlimit="10" stroke-width="0.5" stroke-dasharray=""/><text fill="#505050" stroke="none" font-family="monospace" font-size="14px" font-style="normal" font-weight="normal" text-decoration="normal" x="559.6044158935547" y="183.4921636581421" text-anchor="start" dominant-baseline="alphabetic">Self Test</text><path fill="white" stroke="#505050" paint-order="fill stroke markers" d=" M 651.7678070068359 257.3394842147827 L 651.7678070068359 301.3394842147827 Q 651.7678070068359 309.3394842147827 659.7678070068359 309.3394842147827 L 748.3949432373047 309.3394842147827 Q 756.3949432373047 309.3394842147827 756.3949432373047 301.3394842147827 L 756.3949432373047 257.3394842147827 Q 756.3949432373047 249.33948421478271 748.3949432373047 249.33948421478271 L 659.7678070068359 249.33948421478271 Q 651.7678070068359 249.33948421478271 651.7678070068359 257.3394842147827" stroke-miterlimit="10" stroke-width="0.5" stroke-dasharray=""/><path fill="none" stroke="#505050" paint-order="fill stroke markers" d=" M 651.7678070068359 269.3394842147827 L 756.3949432373047 269.3394842147827" stroke-miterlimit="10" stroke-width="0.5" stroke-dasharray=""/><text fill="#505050" stroke="none" font-family="monospace" font-size="14px" font-style="normal" font-weight="normal" text-decoration="normal" x="659.7678070068359" y="263.3394842147827" text-anchor="start" dominant-baseline="alphabetic">Maintenance</text><path fill="white" stroke="#505050" paint-order="fill stroke markers" d=" M 860.5141334533691 255.07739925384521 L 860.5141334533691 299.0773992538452 Q 860.5141334533691 307.0773992538452 868.5141334533691 307.0773992538452 L 994.9927711486816 307.0773992538452 Q 1002.9927711486816 307.0773992538452 1002.9927711486816 299.0773992538452 L 1002.9927711486816 255.07739925384521 Q 1002.9927711486816 247.07739925384521 994.9927711486816 247.07739925384521 L 868.5141334533691 247.07739925384521 Q 860.5141334533691 247.07739925384521 860.5141334533691 255.07739925384521" stroke-miterlimit="10" stroke-width="0.5" stroke-dasharray=""/><path fill="none" stroke="#505050" paint-order="fill stroke markers" d=" M 860.5141334533691 267.0773992538452 L 1002.9927711486816 267.0773992538452" stroke-miterlimit="10" stroke-width="0.5" stroke-dasharray=""/><text fill="#505050" stroke="none" font-family="monospace" font-size="14px" font-style="normal" font-weight="normal" text-decoration="normal" x="868.5141334533691" y="261.0773992538452" text-anchor="start" dominant-baseline="alphabetic">Out of Service</text><path fill="white" stroke="#505050" paint-order="fill stroke markers" d=" M 290.46088790893555 385.6242742538452 L 290.46088790893555 526.3671941757202 Q 290.46088790893555 534.3671941757202 298.46088790893555 534.3671941757202 L 956.8806076049805 534.3671941757202 Q 964.8806076049805 534.3671941757202 964.8806076049805 526.3671941757202 L 964.8806076049805 385.6242742538452 Q 964.8806076049805 377.6242742538452 956.8806076049805 377.6242742538452 L 298.46088790893555 377.6242742538452 Q 290.46088790893555 377.6242742538452 290.46088790893555 385.6242742538452" stroke-miterlimit="10" stroke-width="0.5" stroke-dasharray=""/><path fill="none" stroke="#505050" paint-order="fill stroke markers" d=" M 290.46088790893555 397.6242742538452 L 964.8806076049805 397.6242742538452" stroke-miterlimit="10" stroke-width="0.5" stroke-dasharray=""/><text fill="#505050" stroke="none" font-family="monospace" font-size="14px" font-style="normal" font-weight="normal" text-decoration="normal" x="298.46088790893555" y="391.6242742538452" text-anchor="start" dominant-baseline="alphabetic">Serving Customer</text><text fill="#505050" stroke="none" font-family="monospace" font-size="14px" font-style="normal" font-weight="normal" text-decoration="normal" x="298.46088790893555" y="508.3671941757202" text-anchor="start" dominant-baseline="alphabetic">entry/ read card</text><text fill="#505050" stroke="none" font-family="monospace" font-size="14px" font-style="normal" font-weight="normal" text-decoration="normal" x="298.46088790893555" y="528.3671941757202" text-anchor="start" dominant-baseline="alphabetic">exit/ eject card</text><path fill="#505050" stroke="#505050" paint-order="fill stroke markers" d=" M 319.0425777435303 418.22300243377686 A 8 8 0 1 1 319.0425737435306 418.2150024351102" stroke-miterlimit="10" stroke-width="0.25" stroke-dasharray=""/><path fill="white" stroke="#505050" paint-order="fill stroke markers" d=" M 335.4644546508789 434.3671941757202 L 335.4644546508789 478.3671941757202 Q 335.4644546508789 486.3671941757202 343.4644546508789 486.3671941757202 L 538.096565246582 486.3671941757202 Q 546.096565246582 486.3671941757202 546.096565246582 478.3671941757202 L 546.096565246582 434.3671941757202 Q 546.096565246582 426.3671941757202 538.096565246582 426.3671941757202 L 343.4644546508789 426.3671941757202 Q 335.4644546508789 426.3671941757202 335.4644546508789 434.3671941757202" stroke-miterlimit="10" stroke-width="0.5" stroke-dasharray=""/><path fill="none" stroke="#505050" paint-order="fill stroke markers" d=" M 335.4644546508789 446.3671941757202 L 546.096565246582 446.3671941757202" stroke-miterlimit="10" stroke-width="0.5" stroke-dasharray=""/><text fill="#505050" stroke="none" font-family="monospace" font-size="14px" font-style="normal" font-weight="normal" text-decoration="normal" x="343.4644546508789" y="440.3671941757202" text-anchor="start" dominant-baseline="alphabetic">Customer Authentication</text><path fill="white" stroke="#505050" paint-order="fill stroke markers" d=" M 804.9316177368164 432.7336492538452 L 804.9316177368164 476.7336492538452 Q 804.9316177368164 484.7336492538452 812.9316177368164 484.7336492538452 L 903.4017715454102 484.7336492538452 Q 911.4017715454102 484.7336492538452 911.4017715454102 476.7336492538452 L 911.4017715454102 432.7336492538452 Q 911.4017715454102 424.7336492538452 903.4017715454102 424.7336492538452 L 812.9316177368164 424.7336492538452 Q 804.9316177368164 424.7336492538452 804.9316177368164 432.7336492538452" stroke-miterlimit="10" stroke-width="0.5" stroke-dasharray=""/><path fill="none" stroke="#505050" paint-order="fill stroke markers" d=" M 804.9316177368164 444.7336492538452 L 911.4017715454102 444.7336492538452" stroke-miterlimit="10" stroke-width="0.5" stroke-dasharray=""/><text fill="#505050" stroke="none" font-family="monospace" font-size="14px" font-style="normal" font-weight="normal" text-decoration="normal" x="812.9316177368164" y="438.7336492538452" text-anchor="start" dominant-baseline="alphabetic">Transaction</text><path fill="white" stroke="#505050" paint-order="fill stroke markers" d=" M 583.2379531860352 434.1896734237671 L 583.2379531860352 478.1896734237671 Q 583.2379531860352 486.1896734237671 591.2379531860352 486.1896734237671 L 768.3061294555664 486.1896734237671 Q 776.3061294555664 486.1896734237671 776.3061294555664 478.1896734237671 L 776.3061294555664 434.1896734237671 Q 776.3061294555664 426.1896734237671 768.3061294555664 426.1896734237671 L 591.2379531860352 426.1896734237671 Q 583.2379531860352 426.1896734237671 583.2379531860352 434.1896734237671" stroke-miterlimit="10" stroke-width="0.5" stroke-dasharray=""/><path fill="none" stroke="#505050" paint-order="fill stroke markers" d=" M 583.2379531860352 446.1896734237671 L 776.3061294555664 446.1896734237671" stroke-miterlimit="10" stroke-width="0.5" stroke-dasharray=""/><text fill="#505050" stroke="none" font-family="monospace" font-size="14px" font-style="normal" font-weight="normal" text-decoration="normal" x="591.2379531860352" y="440.1896734237671" text-anchor="start" dominant-baseline="alphabetic">Selecting Transaction</text><path fill="white" stroke="#505050" paint-order="fill stroke markers" d=" M 956.8806076049805 428.6846227645874 A 8 8 0 1 1 956.8806036049808 428.67662276592074" stroke-miterlimit="10" stroke-width="0.25" stroke-dasharray=""/><path fill="#505050" stroke="none" paint-order="stroke fill markers" d=" M 952.8806076049805 428.6846227645874 A 4 4 0 1 1 952.8806056049806 428.68062276525404"/><path fill="none" stroke="#505050" paint-order="fill stroke markers" d=" M 416.16761779785156 137.15659217572914 C 461.3879873327265 137.15659217572914 506.38404635867977 203.32140791920926 551.6044158935547 203.32140791920926 M 544.6764158935547 199.32140791920926 L 551.6044158935547 203.32140791920926 L 544.6764158935547 207.32140791920926" stroke-miterlimit="10" stroke-dasharray=""/><text fill="#505050" stroke="none" font-family="monospace" font-size="14px" font-style="normal" font-weight="normal" text-decoration="normal" x="446.36554976097256" y="155.89780061128246" text-anchor="start" dominant-baseline="alphabetic">turn on / startup</text><path fill="none" stroke="#505050" paint-order="fill stroke markers" d=" M 295.7056139039071 112.2279398653265 C 308.5825154240714 124.2122790699175 308.5825154240714 124.2122790699175 316.16761779785156 124.2122790699175 M 309.23961779785157 120.2122790699175 L 316.16761779785156 124.2122790699175 L 309.23961779785157 128.21227906991749" stroke-miterlimit="10" stroke-dasharray=""/><text fill="#505050" stroke="none" font-family="monospace" font-size="14px" font-style="normal" font-weight="normal" text-decoration="normal" x="315.9210405307734" y="136.71423666934362" text-anchor="start" dominant-baseline="alphabetic"></text><path fill="none" stroke="#505050" paint-order="fill stroke markers" d=" M 551.6044158935547 214.91926525314457 C 518.0292986312481 214.91926525314457 495.3357526382831 281.6539853840453 461.76063537597656 281.6539853840453 M 468.68863537597656 285.6539853840453 L 461.76063537597656 281.6539853840453 L 468.68863537597656 277.6539853840453" stroke-miterlimit="10" stroke-dasharray=""/><text fill="#505050" stroke="none" font-family="monospace" font-size="14px" font-style="normal" font-weight="normal" text-decoration="normal" x="514.6825256347656" y="262.28662531859493" text-anchor="start" dominant-baseline="alphabetic"></text><path fill="none" stroke="#505050" paint-order="fill stroke markers" d=" M 651.6044158935547 205.5426514671114 C 727.0088256067902 205.5426514671114 899.4969291050452 171.67298954060965 899.4969291050452 247.07739925384521 M 903.4969291050452 240.14939925384522 L 899.4969291050452 247.07739925384521 L 895.4969291050452 240.14939925384522" stroke-miterlimit="10" stroke-dasharray=""/><text fill="#505050" stroke="none" font-family="monospace" font-size="14px" font-style="normal" font-weight="normal" text-decoration="normal" x="891.0778780674194" y="229.24105046986276" text-anchor="start" dominant-baseline="alphabetic">failure</text><path fill="none" stroke="#505050" paint-order="fill stroke markers" d=" M 860.5141334533691 298.79395894572923 C 829.278374529526 298.79395894572923 787.6307021611478 298.82988108926907 756.3949432373047 298.82988108926907 M 763.3229432373047 302.82988108926907 L 756.3949432373047 298.82988108926907 L 763.3229432373047 294.82988108926907" stroke-miterlimit="10" stroke-dasharray=""/><text fill="#505050" stroke="none" font-family="monospace" font-size="14px" font-style="normal" font-weight="normal" text-decoration="normal" x="795.0783448554361" y="312.82198503002905" text-anchor="start" dominant-baseline="alphabetic">service</text><path fill="none" stroke="#505050" paint-order="fill stroke markers" d=" M 651.7678070068359 265.7145044816396 C 633.5437116297477 265.7145044816396 603.0016490478599 247.71625903523028 603.0016490478599 229.4921636581421 M 599.0016490478599 236.4201636581421 L 603.0016490478599 229.4921636581421 L 607.0016490478599 236.4201636581421" stroke-miterlimit="10" stroke-dasharray=""/><text fill="#505050" stroke="none" font-family="monospace" font-size="14px" font-style="normal" font-weight="normal" text-decoration="normal" x="628.5506922609399" y="268.4373698362989" text-anchor="start" dominant-baseline="alphabetic"></text><path fill="none" stroke="#505050" paint-order="fill stroke markers" d=" M 756.3949432373047 277.2734574330874 C 787.6308345805146 277.2734574330874 829.2782421101592 276.9681599023249 860.5141334533691 276.9681599023249 M 853.5861334533691 272.9681599023249 L 860.5141334533691 276.9681599023249 L 853.5861334533691 280.9681599023249" stroke-miterlimit="10" stroke-dasharray=""/><text fill="#505050" stroke="none" font-family="monospace" font-size="14px" font-style="normal" font-weight="normal" text-decoration="normal" x="792.1276437651887" y="291.2167744151853" text-anchor="start" dominant-baseline="alphabetic">failure</text><path fill="none" stroke="#505050" paint-order="fill stroke markers" d=" M 961.591091174862 247.07739925384521 C 961.591091174862 78.8722779697957 584.372739081901 117.15631430763662 416.16761779785156 117.15631430763662 M 423.09561779785156 121.15631430763662 L 416.16761779785156 117.15631430763662 L 423.09561779785156 113.15631430763662" stroke-miterlimit="10" stroke-dasharray=""/><text fill="#505050" stroke="none" font-family="monospace" font-size="14px" font-style="normal" font-weight="normal" text-decoration="normal" x="759.9562749678753" y="133.03993629922235" text-anchor="start" dominant-baseline="alphabetic">turn off / shutdown</text><path fill="none" stroke="#505050" paint-order="fill stroke markers" d=" M 361.76063537597656 284.32004043078905 C 326.3336305160037 284.32004043078905 349.6744120731379 202.27715496831027 349.6744120731379 166.8501501083374 M 345.6744120731379 173.7781501083374 L 349.6744120731379 166.8501501083374 L 353.6744120731379 173.7781501083374" stroke-miterlimit="10" stroke-dasharray=""/><text fill="#505050" stroke="none" font-family="monospace" font-size="14px" font-style="normal" font-weight="normal" text-decoration="normal" x="353.8216797500886" y="220.03343941187597" text-anchor="start" dominant-baseline="alphabetic">turn off / shutdown</text><path fill="none" stroke="#505050" paint-order="fill stroke markers" d=" M 461.76063537597656 292.4354279855072 C 518.7653107026355 292.4354279855072 594.763131680177 290.6473977424919 651.7678070068359 290.6473977424919 M 644.8398070068359 286.6473977424919 L 651.7678070068359 290.6473977424919 L 644.8398070068359 294.6473977424919" stroke-miterlimit="10" stroke-dasharray=""/><text fill="#505050" stroke="none" font-family="monospace" font-size="14px" font-style="normal" font-weight="normal" text-decoration="normal" x="524.7660214682403" y="306.05384360852184" text-anchor="start" dominant-baseline="alphabetic">service</text><path fill="none" stroke="#505050" paint-order="fill stroke markers" d=" M 317.5186020525507 422.9199279333964 C 329.50075991087294 431.6103373728467 329.50075991087294 431.6103373728467 335.61595473660816 432.8176622800523 M 329.5939197586837 427.5515177012685 L 335.61595473660816 432.8176622800523 L 328.04438786301574 435.40001761553924" stroke-miterlimit="10" stroke-dasharray=""/><text fill="#505050" stroke="none" font-family="monospace" font-size="14px" font-style="normal" font-weight="normal" text-decoration="normal" x="336.76738953179955" y="444.67495180631613" text-anchor="start" dominant-baseline="alphabetic"></text><path fill="none" stroke="#505050" paint-order="fill stroke markers" d=" M 546.096565246582 451.2253729239908 C 557.2392569184188 451.2253729239908 572.0952615141983 450.9642882758475 583.2379531860352 450.9642882758475 M 576.3099531860352 446.9642882758475 L 583.2379531860352 450.9642882758475 L 576.3099531860352 454.9642882758475" stroke-miterlimit="10" stroke-dasharray=""/><text fill="#505050" stroke="none" font-family="monospace" font-size="14px" font-style="normal" font-weight="normal" text-decoration="normal" x="572.6672592163086" y="465.09483059991913" text-anchor="start" dominant-baseline="alphabetic"></text><path fill="none" stroke="#505050" paint-order="fill stroke markers" d=" M 911.4017715454102 439.60382906638074 C 920.7131254554455 439.60382906638074 920.7131254554455 439.60382906638074 941.4214602117041 431.5761829257079 M 933.5160584885666 430.35070032860006 L 941.4214602117041 431.5761829257079 L 936.407618649687 437.8098477218764" stroke-miterlimit="10" stroke-dasharray=""/><text fill="#505050" stroke="none" font-family="monospace" font-size="14px" font-style="normal" font-weight="normal" text-decoration="normal" x="930.1377480612234" y="452.6003732987966" text-anchor="start" dominant-baseline="alphabetic"></text><path fill="none" stroke="#505050" paint-order="fill stroke markers" d=" M 776.3061294555664 451.2479361188871 C 784.8991686595906 451.2479361188871 796.3385785327922 450.23331729993623 804.9316177368164 450.23331729993623 M 798.0036177368164 446.23331729993623 L 804.9316177368164 450.23331729993623 L 798.0036177368164 454.23331729993623" stroke-miterlimit="10" stroke-dasharray=""/><text fill="#505050" stroke="none" font-family="monospace" font-size="14px" font-style="normal" font-weight="normal" text-decoration="normal" x="798.6188735961914" y="464.7406267094117" text-anchor="start" dominant-baseline="alphabetic"></text><path fill="none" stroke="#505050" paint-order="fill stroke markers" d=" M 361.76063537597656 299.5201268172673 C 325.5281112965323 299.5201268172673 254.2283638294913 397.00328446056733 290.46088790893555 397.00328446056733 M 283.53288790893555 393.00328446056733 L 290.46088790893555 397.00328446056733 L 283.53288790893555 401.00328446056733" stroke-miterlimit="10" stroke-dasharray=""/><text fill="#505050" stroke="none" font-family="monospace" font-size="14px" font-style="normal" font-weight="normal" text-decoration="normal" x="336.3661464264543" y="330.3068918591557" text-anchor="start" dominant-baseline="alphabetic">cardInserted</text><path fill="none" stroke="#505050" paint-order="fill stroke markers" d=" M 533.6512915210845 377.6242742538452 C 533.6512915210845 346.9666680227086 476.92388109978305 332.8607492609619 458.55415426802836 308.3160562306928 M 459.502913774887 316.25942071925465 L 458.55415426802836 308.3160562306928 L 465.9077694822034 311.4659018272029" stroke-miterlimit="10" stroke-dasharray=""/><text fill="#505050" stroke="none" font-family="monospace" font-size="14px" font-style="normal" font-weight="normal" text-decoration="normal" x="501.78616436546906" y="349.0090777456046" text-anchor="start" dominant-baseline="alphabetic">cancel</text><path fill="none" stroke="#505050" paint-order="fill stroke markers" d=" M 600.2721219599089 377.6242742538452 C 600.2721219599089 330.3271208813471 508.9767756252231 304.9033614610788 461.748914971824 302.34408514838367 M 468.4503227893243 306.7131030315636 L 461.748914971824 302.34408514838367 L 468.8832074143314 298.7248234357162" stroke-miterlimit="10" stroke-dasharray=""/><text fill="#505050" stroke="none" font-family="monospace" font-size="14px" font-style="normal" font-weight="normal" text-decoration="normal" x="556.7209662108911" y="337.20747580368834" text-anchor="start" dominant-baseline="alphabetic"></text></g></g></svg>