<svg version="1.1" xmlns="http://www.w3.org/2000/svg" xmlns:xlink="http://www.w3.org/1999/xlink" width="1899.251956613809" height="1278.4792536709522"><defs/><g transform="scale(1.5,1.5) translate(-140.25596444211897,-83.03124618530273)"><g><path fill="white" stroke="#505050" paint-order="fill stroke markers" d=" M 319.87145233154297 132.8046875 L 319.87145233154297 176.8046875 Q 319.87145233154297 184.8046875 327.87145233154297 184.8046875 L 462.29332733154297 184.8046875 Q 470.29332733154297 184.8046875 470.29332733154297 176.8046875 L 470.29332733154297 132.8046875 Q 470.29332733154297 124.8046875 462.29332733154297 124.8046875 L 327.87145233154297 124.8046875 Q 319.87145233154297 124.8046875 319.87145233154297 132.8046875" stroke-miterlimit="10" stroke-width="0.5" stroke-dasharray=""/><path fill="none" stroke="#505050" paint-order="fill stroke markers" d=" M 319.87145233154297 144.8046875 L 470.29332733154297 144.8046875" stroke-miterlimit="10" stroke-width="0.5" stroke-dasharray=""/><text fill="#505050" stroke="none" font-family="monospace" font-size="14px" font-style="normal" font-weight="normal" text-decoration="normal" x="327.87145233154297" y="138.8046875" text-anchor="start" dominant-baseline="alphabetic">Idle</text><text fill="#505050" stroke="none" font-family="monospace" font-size="14px" font-style="normal" font-weight="normal" text-decoration="normal" x="327.87145233154297" y="158.8046875" text-anchor="start" dominant-baseline="alphabetic">entry/ count = 0</text><path fill="#505050" stroke="#505050" paint-order="fill stroke markers" d=" M 306.03124046325684 93.03124618530273 A 8 8 0 1 1 306.0312364632572 93.02324618663606" stroke-miterlimit="10" stroke-width="0.25" stroke-dasharray=""/><path fill="white" stroke="#505050" paint-order="fill stroke markers" d=" M 529.2783737182617 270.7911682128906 L 529.2783737182617 314.7911682128906 Q 529.2783737182617 322.7911682128906 537.2783737182617 322.7911682128906 L 688.5029830932617 322.7911682128906 Q 696.5029830932617 322.7911682128906 696.5029830932617 314.7911682128906 L 696.5029830932617 270.7911682128906 Q 696.5029830932617 262.7911682128906 688.5029830932617 262.7911682128906 L 537.2783737182617 262.7911682128906 Q 529.2783737182617 262.7911682128906 529.2783737182617 270.7911682128906" stroke-miterlimit="10" stroke-width="0.5" stroke-dasharray=""/><path fill="none" stroke="#505050" paint-order="fill stroke markers" d=" M 529.2783737182617 282.7911682128906 L 696.5029830932617 282.7911682128906" stroke-miterlimit="10" stroke-width="0.5" stroke-dasharray=""/><text fill="#505050" stroke="none" font-family="monospace" font-size="14px" font-style="normal" font-weight="normal" text-decoration="normal" x="537.2783737182617" y="276.7911682128906" text-anchor="start" dominant-baseline="alphabetic">Verification</text><text fill="#505050" stroke="none" font-family="monospace" font-size="14px" font-style="normal" font-weight="normal" text-decoration="normal" x="537.2783737182617" y="296.7911682128906" text-anchor="start" dominant-baseline="alphabetic">entry/ Ask for PIN</text><path fill="white" stroke="#505050" paint-order="fill stroke markers" d=" M 358.29119873046875 387.5596694946289 L 358.29119873046875 431.5596694946289 Q 358.29119873046875 439.5596694946289 366.29119873046875 439.5596694946289 L 483.91033935546875 439.5596694946289 Q 491.91033935546875 439.5596694946289 491.91033935546875 431.5596694946289 L 491.91033935546875 387.5596694946289 Q 491.91033935546875 379.5596694946289 483.91033935546875 379.5596694946289 L 366.29119873046875 379.5596694946289 Q 358.29119873046875 379.5596694946289 358.29119873046875 387.5596694946289" stroke-miterlimit="10" stroke-width="0.5" stroke-dasharray=""/><path fill="none" stroke="#505050" paint-order="fill stroke markers" d=" M 358.29119873046875 399.5596694946289 L 491.91033935546875 399.5596694946289" stroke-miterlimit="10" stroke-width="0.5" stroke-dasharray=""/><text fill="#505050" stroke="none" font-family="monospace" font-size="14px" font-style="normal" font-weight="normal" text-decoration="normal" x="366.29119873046875" y="393.5596694946289" text-anchor="start" dominant-baseline="alphabetic">Search PIN</text><text fill="#505050" stroke="none" font-family="monospace" font-size="14px" font-style="normal" font-weight="normal" text-decoration="normal" x="366.29119873046875" y="413.5596694946289" text-anchor="start" dominant-baseline="alphabetic">entry/ count++</text><path fill="white" stroke="#505050" paint-order="fill stroke markers" d=" M 496.6044158935547 494.8572463989258 L 496.6044158935547 714.2708730207788 Q 496.6044158935547 722.2708730207788 504.6044158935547 722.2708730207788 L 822.6270561218262 722.2708730207788 Q 830.6270561218262 722.2708730207788 830.6270561218262 714.2708730207788 L 830.6270561218262 494.8572463989258 Q 830.6270561218262 486.8572463989258 822.6270561218262 486.8572463989258 L 504.6044158935547 486.8572463989258 Q 496.6044158935547 486.8572463989258 496.6044158935547 494.8572463989258" stroke-miterlimit="10" stroke-width="0.5" stroke-dasharray=""/><path fill="none" stroke="#505050" paint-order="fill stroke markers" d=" M 496.6044158935547 506.8572463989258 L 830.6270561218262 506.8572463989258" stroke-miterlimit="10" stroke-width="0.5" stroke-dasharray=""/><text fill="#505050" stroke="none" font-family="monospace" font-size="14px" font-style="normal" font-weight="normal" text-decoration="normal" x="504.6044158935547" y="500.8572463989258" text-anchor="start" dominant-baseline="alphabetic">Transaction</text><text fill="#505050" stroke="none" font-family="monospace" font-size="14px" font-style="normal" font-weight="normal" text-decoration="normal" x="504.6044158935547" y="684.3999710453832" text-anchor="start" dominant-baseline="alphabetic">entry/ Select Transaction</text><text fill="#505050" stroke="none" font-family="monospace" font-size="14px" font-style="normal" font-weight="normal" text-decoration="normal" x="504.6044158935547" y="704.3999710453832" text-anchor="start" dominant-baseline="alphabetic">exit/ End Transaction</text><path fill="#505050" stroke="#505050" paint-order="fill stroke markers" d=" M 520.6044158935547 519.2528419494629 A 8 8 0 1 1 520.604411893555 519.2448419507962" stroke-miterlimit="10" stroke-width="0.25" stroke-dasharray=""/><path fill="white" stroke="#505050" paint-order="fill stroke markers" d=" M 539.622802734375 537.8649673461914 L 539.622802734375 581.8649673461914 Q 539.622802734375 589.8649673461914 547.622802734375 589.8649673461914 L 631.622802734375 589.8649673461914 Q 639.622802734375 589.8649673461914 639.622802734375 581.8649673461914 L 639.622802734375 537.8649673461914 Q 639.622802734375 529.8649673461914 631.622802734375 529.8649673461914 L 547.622802734375 529.8649673461914 Q 539.622802734375 529.8649673461914 539.622802734375 537.8649673461914" stroke-miterlimit="10" stroke-width="0.5" stroke-dasharray=""/><path fill="none" stroke="#505050" paint-order="fill stroke markers" d=" M 539.622802734375 549.8649673461914 L 639.622802734375 549.8649673461914" stroke-miterlimit="10" stroke-width="0.5" stroke-dasharray=""/><text fill="#505050" stroke="none" font-family="monospace" font-size="14px" font-style="normal" font-weight="normal" text-decoration="normal" x="547.622802734375" y="543.8649673461914" text-anchor="start" dominant-baseline="alphabetic">Prompt</text><path fill="white" stroke="#505050" paint-order="fill stroke markers" d=" M 698.7953910827637 558.1953125 L 698.7953910827637 602.1953125 Q 698.7953910827637 610.1953125 706.7953910827637 610.1953125 L 790.7953910827637 610.1953125 Q 798.7953910827637 610.1953125 798.7953910827637 602.1953125 L 798.7953910827637 558.1953125 Q 798.7953910827637 550.1953125 790.7953910827637 550.1953125 L 706.7953910827637 550.1953125 Q 698.7953910827637 550.1953125 698.7953910827637 558.1953125" stroke-miterlimit="10" stroke-width="0.5" stroke-dasharray=""/><path fill="none" stroke="#505050" paint-order="fill stroke markers" d=" M 698.7953910827637 570.1953125 L 798.7953910827637 570.1953125" stroke-miterlimit="10" stroke-width="0.5" stroke-dasharray=""/><text fill="#505050" stroke="none" font-family="monospace" font-size="14px" font-style="normal" font-weight="normal" text-decoration="normal" x="706.7953910827637" y="564.1953125" text-anchor="start" dominant-baseline="alphabetic">Verify</text><path fill="white" stroke="#505050" paint-order="fill stroke markers" d=" M 886.5155487060547 453.0532121658325 L 886.5155487060547 504.89056873321533 Q 886.5155487060547 512.8905687332153 894.5155487060547 512.8905687332153 L 1081.8819427490234 512.8905687332153 Q 1089.8819427490234 512.8905687332153 1089.8819427490234 504.89056873321533 L 1089.8819427490234 453.0532121658325 Q 1089.8819427490234 445.0532121658325 1081.8819427490234 445.0532121658325 L 894.5155487060547 445.0532121658325 Q 886.5155487060547 445.0532121658325 886.5155487060547 453.0532121658325" stroke-miterlimit="10" stroke-width="0.5" stroke-dasharray=""/><path fill="none" stroke="#505050" paint-order="fill stroke markers" d=" M 886.5155487060547 465.0532121658325 L 1089.8819427490234 465.0532121658325" stroke-miterlimit="10" stroke-width="0.5" stroke-dasharray=""/><text fill="#505050" stroke="none" font-family="monospace" font-size="14px" font-style="normal" font-weight="normal" text-decoration="normal" x="894.5155487060547" y="459.0532121658325" text-anchor="start" dominant-baseline="alphabetic">Process Transaction</text><path fill="none" stroke="#505050" paint-order="fill stroke markers" d=" M 303.2896044173202 99.06030983786165 C 318.94334207118885 117.00836013261218 318.94334207118885 117.00836013261218 323.93507737622764 125.84013782244249 M 324.0084515037033 117.84065032402003 L 323.93507737622764 125.84013782244249 L 317.0439018261458 121.77702527933533" stroke-miterlimit="10" stroke-dasharray=""/><text fill="#505050" stroke="none" font-family="monospace" font-size="14px" font-style="normal" font-weight="normal" text-decoration="normal" x="325.6105917775851" y="129.86882605699714" text-anchor="start" dominant-baseline="alphabetic"></text><path fill="none" stroke="#505050" paint-order="fill stroke markers" d=" M 470.29332733154297 173.1706102165606 C 509.0993791586631 173.1706102165606 563.5697183547045 223.98511638577048 563.5697183547045 262.7911682128906 M 567.5697183547045 255.86316821289063 L 563.5697183547045 262.7911682128906 L 559.5697183547045 255.86316821289063" stroke-miterlimit="10" stroke-dasharray=""/><text fill="#505050" stroke="none" font-family="monospace" font-size="14px" font-style="normal" font-weight="normal" text-decoration="normal" x="539.4837922782938" y="217.42861977955556" text-anchor="start" dominant-baseline="alphabetic">Insert Card</text><path fill="none" stroke="#505050" paint-order="fill stroke markers" d=" M 491.91033935546875 418.7853771119807 C 537.6371560138383 418.7853771119807 610.3071218245858 368.5179848712602 610.3071218245858 322.7911682128906 M 606.3071218245858 329.7191682128906 L 610.3071218245858 322.7911682128906 L 614.3071218245858 329.7191682128906" stroke-miterlimit="10" stroke-dasharray=""/><text fill="#505050" stroke="none" font-family="monospace" font-size="14px" font-style="normal" font-weight="normal" text-decoration="normal" x="576.2562868369158" y="401.93582890932424" text-anchor="start" dominant-baseline="alphabetic">Invalid PIN[count &lt; 3]</text><path fill="none" stroke="#505050" paint-order="fill stroke markers" d=" M 529.2783737182617 305.50492382726077 C 490.37091427615485 305.50492382726077 422.8087161620715 340.65221005252204 422.8087161620715 379.5596694946289 M 426.8087161620715 372.6316694946289 L 422.8087161620715 379.5596694946289 L 418.8087161620715 372.6316694946289" stroke-miterlimit="10" stroke-dasharray=""/><text fill="#505050" stroke="none" font-family="monospace" font-size="14px" font-style="normal" font-weight="normal" text-decoration="normal" x="458.1483983892672" y="349.8413817764181" text-anchor="start" dominant-baseline="alphabetic">PIN Entered</text><path fill="none" stroke="#505050" paint-order="fill stroke markers" d=" M 358.29119873046875 419.3405018490757 C 280.85181959863195 419.3405018490757 242.43207319970617 164.08441000486607 319.87145233154297 164.08441000486607 M 312.94345233154297 160.08441000486607 L 319.87145233154297 164.08441000486607 L 312.94345233154297 168.08441000486607" stroke-miterlimit="10" stroke-dasharray=""/><text fill="#505050" stroke="none" font-family="monospace" font-size="14px" font-style="normal" font-weight="normal" text-decoration="normal" x="286.68358784078475" y="286.3263569696141" text-anchor="start" dominant-baseline="alphabetic">Invalid PIN[count == 3]</text><path fill="none" stroke="#505050" paint-order="fill stroke markers" d=" M 639.2424349696194 535.427508710722 C 664.3404686538709 527.3988510211796 725.8284690323042 523.844399060203 725.8284690323042 550.1953125 M 729.8284690323042 543.2673125 L 725.8284690323042 550.1953125 L 721.8284690323042 543.2673125" stroke-miterlimit="10" stroke-dasharray=""/><text fill="#505050" stroke="none" font-family="monospace" font-size="14px" font-style="normal" font-weight="normal" text-decoration="normal" x="699.9472146325561" y="543.9190714318587" text-anchor="start" dominant-baseline="alphabetic"></text><path fill="none" stroke="#505050" paint-order="fill stroke markers" d=" M 746.4130877498992 610.1953125 C 746.4130877498992 662.3999710453832 573.5892432732028 642.0696258915746 573.5892432732028 589.8649673461914 M 569.5892432732028 596.7929673461914 L 573.5892432732028 589.8649673461914 L 577.5892432732028 596.7929673461914" stroke-miterlimit="10" stroke-dasharray=""/><text fill="#505050" stroke="none" font-family="monospace" font-size="14px" font-style="normal" font-weight="normal" text-decoration="normal" x="668.1461443031629" y="653.2006396067829" text-anchor="start" dominant-baseline="alphabetic">Choose Transaction[transaction == 'withdraw' &amp;&amp; newBalance &lt; 0]/deny</text><path fill="none" stroke="#505050" paint-order="fill stroke markers" d=" M 519.4939069103503 523.3191564392056 C 533.5971206883654 531.6431534366144 533.5971206883654 531.6431534366144 540.3100244498223 534.6210077655286 M 535.5991382457311 528.1553496263982 L 540.3100244498223 534.6210077655286 L 532.3551786650683 535.468127910951" stroke-miterlimit="10" stroke-dasharray=""/><text fill="#505050" stroke="none" font-family="monospace" font-size="14px" font-style="normal" font-weight="normal" text-decoration="normal" x="540.6733319362957" y="544.9748856030526" text-anchor="start" dominant-baseline="alphabetic"></text><path fill="none" stroke="#505050" paint-order="fill stroke markers" d=" M 428.85966579605133 439.5596694946289 C 428.85966579605133 475.2693304048118 460.8947549833718 537.4336404641397 496.6044158935547 537.4336404641397 M 489.6764158935547 533.4336404641397 L 496.6044158935547 537.4336404641397 L 489.6764158935547 541.4336404641397" stroke-miterlimit="10" stroke-dasharray=""/><text fill="#505050" stroke="none" font-family="monospace" font-size="14px" font-style="normal" font-weight="normal" text-decoration="normal" x="437.0910035327464" y="459.0376065300443" text-anchor="start" dominant-baseline="alphabetic">Valid PIN</text><path fill="none" stroke="#505050" paint-order="fill stroke markers" d=" M 496.61135000675415 714.6038861275265 C 319.14981285470583 721.9974218060972 142.25596444211897 149.54801564040616 319.87145233154297 149.54801564040616 M 312.94345233154297 145.54801564040616 L 319.87145233154297 149.54801564040616 L 312.94345233154297 153.54801564040616" stroke-miterlimit="10" stroke-dasharray=""/><text fill="#505050" stroke="none" font-family="monospace" font-size="14px" font-style="normal" font-weight="normal" text-decoration="normal" x="296.89703079395713" y="489.3516348852917" text-anchor="start" dominant-baseline="alphabetic">Card Removed</text><path fill="none" stroke="#505050" paint-order="fill stroke markers" d=" M 830.6270561218262 585.3803937993771 C 867.2449761970453 585.3803937993771 928.8299268766564 549.5084888084344 928.8299268766564 512.8905687332153 M 924.8299268766564 519.8185687332153 L 928.8299268766564 512.8905687332153 L 932.8299268766564 519.8185687332153" stroke-miterlimit="10" stroke-dasharray=""/><text fill="#505050" stroke="none" font-family="monospace" font-size="14px" font-style="normal" font-weight="normal" text-decoration="normal" x="901.4602115274483" y="576.8672012945033" text-anchor="start" dominant-baseline="alphabetic">Choose Transaction[newBalance &gt;= 0]</text></g></g></svg>