<svg version="1.1" xmlns="http://www.w3.org/2000/svg" xmlns:xlink="http://www.w3.org/1999/xlink" width="999.7437476676164" height="1403.134843826294"><defs/><g transform="scale(1.5,1.5) translate(-168.17584802898477,-83.03124618530273)"><g><path fill="white" stroke="#505050" paint-order="fill stroke markers" d=" M 319.87145233154297 132.8046875 L 319.87145233154297 176.8046875 Q 319.87145233154297 184.8046875 327.87145233154297 184.8046875 L 462.29332733154297 184.8046875 Q 470.29332733154297 184.8046875 470.29332733154297 176.8046875 L 470.29332733154297 132.8046875 Q 470.29332733154297 124.8046875 462.29332733154297 124.8046875 L 327.87145233154297 124.8046875 Q 319.87145233154297 124.8046875 319.87145233154297 132.8046875" stroke-miterlimit="10" stroke-width="0.5" stroke-dasharray=""/><path fill="none" stroke="#505050" paint-order="fill stroke markers" d=" M 319.87145233154297 144.8046875 L 470.29332733154297 144.8046875" stroke-miterlimit="10" stroke-width="0.5" stroke-dasharray=""/><text fill="#505050" stroke="none" font-family="monospace" font-size="14px" font-style="normal" font-weight="normal" text-decoration="normal" x="327.87145233154297" y="138.8046875" text-anchor="start" dominant-baseline="alphabetic">Idle</text><text fill="#505050" stroke="none" font-family="monospace" font-size="14px" font-style="normal" font-weight="normal" text-decoration="normal" x="327.87145233154297" y="158.8046875" text-anchor="start" dominant-baseline="alphabetic">entry/ count = 0</text><path fill="#505050" stroke="#505050" paint-order="fill stroke markers" d=" M 306.03124046325684 93.03124618530273 A 8 8 0 1 1 306.0312364632572 93.02324618663606" stroke-miterlimit="10" stroke-width="0.25" stroke-dasharray=""/><path fill="white" stroke="#505050" paint-order="fill stroke markers" d=" M 500.82311248779297 257.3891906738281 L 500.82311248779297 301.3891906738281 Q 500.82311248779297 309.3891906738281 508.82311248779297 309.3891906738281 L 660.047721862793 309.3891906738281 Q 668.047721862793 309.3891906738281 668.047721862793 301.3891906738281 L 668.047721862793 257.3891906738281 Q 668.047721862793 249.38919067382812 660.047721862793 249.38919067382812 L 508.82311248779297 249.38919067382812 Q 500.82311248779297 249.38919067382812 500.82311248779297 257.3891906738281" stroke-miterlimit="10" stroke-width="0.5" stroke-dasharray=""/><path fill="none" stroke="#505050" paint-order="fill stroke markers" d=" M 500.82311248779297 269.3891906738281 L 668.047721862793 269.3891906738281" stroke-miterlimit="10" stroke-width="0.5" stroke-dasharray=""/><text fill="#505050" stroke="none" font-family="monospace" font-size="14px" font-style="normal" font-weight="normal" text-decoration="normal" x="508.82311248779297" y="263.3891906738281" text-anchor="start" dominant-baseline="alphabetic">Verification</text><text fill="#505050" stroke="none" font-family="monospace" font-size="14px" font-style="normal" font-weight="normal" text-decoration="normal" x="508.82311248779297" y="283.3891906738281" text-anchor="start" dominant-baseline="alphabetic">entry/ Ask for PIN</text><path fill="white" stroke="#505050" paint-order="fill stroke markers" d=" M 358.29119873046875 387.5596694946289 L 358.29119873046875 431.5596694946289 Q 358.29119873046875 439.5596694946289 366.29119873046875 439.5596694946289 L 483.91033935546875 439.5596694946289 Q 491.91033935546875 439.5596694946289 491.91033935546875 431.5596694946289 L 491.91033935546875 387.5596694946289 Q 491.91033935546875 379.5596694946289 483.91033935546875 379.5596694946289 L 366.29119873046875 379.5596694946289 Q 358.29119873046875 379.5596694946289 358.29119873046875 387.5596694946289" stroke-miterlimit="10" stroke-width="0.5" stroke-dasharray=""/><path fill="none" stroke="#505050" paint-order="fill stroke markers" d=" M 358.29119873046875 399.5596694946289 L 491.91033935546875 399.5596694946289" stroke-miterlimit="10" stroke-width="0.5" stroke-dasharray=""/><text fill="#505050" stroke="none" font-family="monospace" font-size="14px" font-style="normal" font-weight="normal" text-decoration="normal" x="366.29119873046875" y="393.5596694946289" text-anchor="start" dominant-baseline="alphabetic">Search PIN</text><text fill="#505050" stroke="none" font-family="monospace" font-size="14px" font-style="normal" font-weight="normal" text-decoration="normal" x="366.29119873046875" y="413.5596694946289" text-anchor="start" dominant-baseline="alphabetic">entry/ count++</text><path fill="white" stroke="#505050" paint-order="fill stroke markers" d=" M 327.0021209716797 494.10794830322266 L 327.0021209716797 646.472563694607 Q 327.0021209716797 654.472563694607 335.0021209716797 654.472563694607 L 641.8884086608887 654.472563694607 Q 649.8884086608887 654.472563694607 649.8884086608887 646.472563694607 L 649.8884086608887 494.10794830322266 Q 649.8884086608887 486.10794830322266 641.8884086608887 486.10794830322266 L 335.0021209716797 486.10794830322266 Q 327.0021209716797 486.10794830322266 327.0021209716797 494.10794830322266" stroke-miterlimit="10" stroke-width="0.5" stroke-dasharray=""/><path fill="none" stroke="#505050" paint-order="fill stroke markers" d=" M 327.0021209716797 506.10794830322266 L 649.8884086608887 506.10794830322266" stroke-miterlimit="10" stroke-width="0.5" stroke-dasharray=""/><text fill="#505050" stroke="none" font-family="monospace" font-size="14px" font-style="normal" font-weight="normal" text-decoration="normal" x="335.0021209716797" y="500.10794830322266" text-anchor="start" dominant-baseline="alphabetic">Transaction</text><text fill="#505050" stroke="none" font-family="monospace" font-size="14px" font-style="normal" font-weight="normal" text-decoration="normal" x="335.0021209716797" y="611.1156692504883" text-anchor="start" dominant-baseline="alphabetic">entry/ Select Transaction</text><text fill="#505050" stroke="none" font-family="monospace" font-size="14px" font-style="normal" font-weight="normal" text-decoration="normal" x="335.0021209716797" y="631.1156692504883" text-anchor="start" dominant-baseline="alphabetic">exit/ End Transaction</text><path fill="#505050" stroke="#505050" paint-order="fill stroke markers" d=" M 351.0021209716797 518.5035438537598 A 8 8 0 1 1 351.00211697168004 518.495543855093" stroke-miterlimit="10" stroke-width="0.25" stroke-dasharray=""/><path fill="white" stroke="#505050" paint-order="fill stroke markers" d=" M 370.0205078125 537.1156692504883 L 370.0205078125 581.1156692504883 Q 370.0205078125 589.1156692504883 378.0205078125 589.1156692504883 L 462.0205078125 589.1156692504883 Q 470.0205078125 589.1156692504883 470.0205078125 581.1156692504883 L 470.0205078125 537.1156692504883 Q 470.0205078125 529.1156692504883 462.0205078125 529.1156692504883 L 378.0205078125 529.1156692504883 Q 370.0205078125 529.1156692504883 370.0205078125 537.1156692504883" stroke-miterlimit="10" stroke-width="0.5" stroke-dasharray=""/><path fill="none" stroke="#505050" paint-order="fill stroke markers" d=" M 370.0205078125 549.1156692504883 L 470.0205078125 549.1156692504883" stroke-miterlimit="10" stroke-width="0.5" stroke-dasharray=""/><text fill="#505050" stroke="none" font-family="monospace" font-size="14px" font-style="normal" font-weight="normal" text-decoration="normal" x="378.0205078125" y="543.1156692504883" text-anchor="start" dominant-baseline="alphabetic">Prompt</text><path fill="white" stroke="#505050" paint-order="fill stroke markers" d=" M 532.1725883483887 526.0397644042969 L 532.1725883483887 570.0397644042969 Q 532.1725883483887 578.0397644042969 540.1725883483887 578.0397644042969 L 624.1725883483887 578.0397644042969 Q 632.1725883483887 578.0397644042969 632.1725883483887 570.0397644042969 L 632.1725883483887 526.0397644042969 Q 632.1725883483887 518.0397644042969 624.1725883483887 518.0397644042969 L 540.1725883483887 518.0397644042969 Q 532.1725883483887 518.0397644042969 532.1725883483887 526.0397644042969" stroke-miterlimit="10" stroke-width="0.5" stroke-dasharray=""/><path fill="none" stroke="#505050" paint-order="fill stroke markers" d=" M 532.1725883483887 538.0397644042969 L 632.1725883483887 538.0397644042969" stroke-miterlimit="10" stroke-width="0.5" stroke-dasharray=""/><text fill="#505050" stroke="none" font-family="monospace" font-size="14px" font-style="normal" font-weight="normal" text-decoration="normal" x="540.1725883483887" y="532.0397644042969" text-anchor="start" dominant-baseline="alphabetic">Verify</text><path fill="white" stroke="#505050" paint-order="fill stroke markers" d=" M 403.53623962402344 724.7613115310669 L 403.53623962402344 776.5986680984497 Q 403.53623962402344 784.5986680984497 411.53623962402344 784.5986680984497 L 598.9026336669922 784.5986680984497 Q 606.9026336669922 784.5986680984497 606.9026336669922 776.5986680984497 L 606.9026336669922 724.7613115310669 Q 606.9026336669922 716.7613115310669 598.9026336669922 716.7613115310669 L 411.53623962402344 716.7613115310669 Q 403.53623962402344 716.7613115310669 403.53623962402344 724.7613115310669" stroke-miterlimit="10" stroke-width="0.5" stroke-dasharray=""/><path fill="none" stroke="#505050" paint-order="fill stroke markers" d=" M 403.53623962402344 736.7613115310669 L 606.9026336669922 736.7613115310669" stroke-miterlimit="10" stroke-width="0.5" stroke-dasharray=""/><text fill="#505050" stroke="none" font-family="monospace" font-size="14px" font-style="normal" font-weight="normal" text-decoration="normal" x="411.53623962402344" y="730.7613115310669" text-anchor="start" dominant-baseline="alphabetic">Process Transaction</text><path fill="none" stroke="#505050" paint-order="fill stroke markers" d=" M 303.2896044173202 99.06030983786165 C 318.94334207118885 117.00836013261218 318.94334207118885 117.00836013261218 323.93507737622764 125.84013782244249 M 324.0084515037033 117.84065032402003 L 323.93507737622764 125.84013782244249 L 317.0439018261458 121.77702527933533" stroke-miterlimit="10" stroke-dasharray=""/><text fill="#505050" stroke="none" font-family="monospace" font-size="14px" font-style="normal" font-weight="normal" text-decoration="normal" x="325.6105917775851" y="129.86882605699714" text-anchor="start" dominant-baseline="alphabetic"></text><path fill="none" stroke="#505050" paint-order="fill stroke markers" d=" M 470.29332733154297 173.1706102165606 C 500.3098990662862 173.1706102165606 535.1144571242357 219.37261893908487 535.1144571242357 249.38919067382812 M 539.1144571242357 242.46119067382813 L 535.1144571242357 249.38919067382812 L 531.1144571242357 242.46119067382813" stroke-miterlimit="10" stroke-dasharray=""/><text fill="#505050" stroke="none" font-family="monospace" font-size="14px" font-style="normal" font-weight="normal" text-decoration="normal" x="521.9601066284181" y="214.02368604466562" text-anchor="start" dominant-baseline="alphabetic">Insert Card</text><path fill="none" stroke="#505050" paint-order="fill stroke markers" d=" M 491.91033935546875 418.7853771119807 C 534.3971638601784 418.7853771119807 581.851860594117 351.8760151785377 581.851860594117 309.3891906738281 M 577.851860594117 316.3171906738281 L 581.851860594117 309.3891906738281 L 585.851860594117 316.3171906738281" stroke-miterlimit="10" stroke-dasharray=""/><text fill="#505050" stroke="none" font-family="monospace" font-size="14px" font-style="normal" font-weight="normal" text-decoration="normal" x="560.813659164059" y="394.01984308217055" text-anchor="start" dominant-baseline="alphabetic">Invalid PIN[count &lt; 3]</text><path fill="none" stroke="#505050" paint-order="fill stroke markers" d=" M 500.82311248779297 292.10294628819827 C 465.6642842631981 292.10294628819827 422.8087161620715 344.40084127003405 422.8087161620715 379.5596694946289 M 426.8087161620715 372.6316694946289 L 422.8087161620715 379.5596694946289 L 418.8087161620715 372.6316694946289" stroke-miterlimit="10" stroke-dasharray=""/><text fill="#505050" stroke="none" font-family="monospace" font-size="14px" font-style="normal" font-weight="normal" text-decoration="normal" x="448.86836320432894" y="346.55307139993573" text-anchor="start" dominant-baseline="alphabetic">PIN Entered</text><path fill="none" stroke="#505050" paint-order="fill stroke markers" d=" M 358.29119873046875 419.3405018490757 C 280.85181959863195 419.3405018490757 242.43207319970617 164.08441000486607 319.87145233154297 164.08441000486607 M 312.94345233154297 160.08441000486607 L 319.87145233154297 164.08441000486607 L 312.94345233154297 168.08441000486607" stroke-miterlimit="10" stroke-dasharray=""/><text fill="#505050" stroke="none" font-family="monospace" font-size="14px" font-style="normal" font-weight="normal" text-decoration="normal" x="286.68358784078475" y="286.3263569696141" text-anchor="start" dominant-baseline="alphabetic">Invalid PIN[count == 3]</text><path fill="none" stroke="#505050" paint-order="fill stroke markers" d=" M 470.0205078125 555.7518913608293 C 489.1804646788848 555.7518913608293 513.0126314820038 541.0531964916458 532.1725883483887 541.0531964916458 M 525.2445883483887 537.0531964916458 L 532.1725883483887 541.0531964916458 L 525.2445883483887 545.0531964916458" stroke-miterlimit="10" stroke-dasharray=""/><text fill="#505050" stroke="none" font-family="monospace" font-size="14px" font-style="normal" font-weight="normal" text-decoration="normal" x="509.09654808044434" y="562.4025439262375" text-anchor="start" dominant-baseline="alphabetic"></text><path fill="none" stroke="#505050" paint-order="fill stroke markers" d=" M 532.1725883483887 563.2681649400532 C 512.9199652554757 563.2681649400532 489.27313090541287 579.2557280276532 470.0205078125 579.2557280276532 M 476.9485078125 583.2557280276532 L 470.0205078125 579.2557280276532 L 476.9485078125 575.2557280276532" stroke-miterlimit="10" stroke-dasharray=""/><text fill="#505050" stroke="none" font-family="monospace" font-size="14px" font-style="normal" font-weight="normal" text-decoration="normal" x="499.2132721161745" y="588.8401990255198" text-anchor="start" dominant-baseline="alphabetic">Choose Transaction[transaction == 'withdraw' &amp;&amp; newBalance &lt; 0]/deny</text><path fill="none" stroke="#505050" paint-order="fill stroke markers" d=" M 349.89161198847535 522.5698583435025 C 363.9948257664904 530.8938553409113 363.9948257664904 530.8938553409113 370.70772952794727 533.8717096698255 M 365.996843323856 527.4060515306951 L 370.70772952794727 533.8717096698255 L 362.7528837431932 534.7188298152479" stroke-miterlimit="10" stroke-dasharray=""/><text fill="#505050" stroke="none" font-family="monospace" font-size="14px" font-style="normal" font-weight="normal" text-decoration="normal" x="371.07103701442065" y="544.2255875073495" text-anchor="start" dominant-baseline="alphabetic"></text><path fill="none" stroke="#505050" paint-order="fill stroke markers" d=" M 425.55318715820596 439.5596694946289 C 425.55318715820596 453.64843066221005 419.32923000922545 472.0191871356415 419.32923000922545 486.10794830322266 M 423.32923000922545 479.17994830322266 L 419.32923000922545 486.10794830322266 L 415.32923000922545 479.17994830322266" stroke-miterlimit="10" stroke-dasharray=""/><text fill="#505050" stroke="none" font-family="monospace" font-size="14px" font-style="normal" font-weight="normal" text-decoration="normal" x="432.49984359811526" y="465.33178346853157" text-anchor="start" dominant-baseline="alphabetic">Valid PIN</text><path fill="none" stroke="#505050" paint-order="fill stroke markers" d=" M 327.2577392256668 648.4786921481269 C 182.34525104827938 686.0172685429055 170.17584802898477 149.54801564040616 319.87145233154297 149.54801564040616 M 312.94345233154297 145.54801564040616 L 319.87145233154297 149.54801564040616 L 312.94345233154297 153.54801564040616" stroke-miterlimit="10" stroke-dasharray=""/><text fill="#505050" stroke="none" font-family="monospace" font-size="14px" font-style="normal" font-weight="normal" text-decoration="normal" x="222.78574453167073" y="463.8461648893396" text-anchor="start" dominant-baseline="alphabetic">Card Removed</text><path fill="none" stroke="#505050" paint-order="fill stroke markers" d=" M 493.3065452445593 654.472563694607 C 493.3065452445593 673.1602140894511 492.6537934042618 698.0736611362228 492.6537934042618 716.7613115310669 M 496.6537934042618 709.8333115310669 L 492.6537934042618 716.7613115310669 L 488.6537934042618 709.8333115310669" stroke-miterlimit="10" stroke-dasharray=""/><text fill="#505050" stroke="none" font-family="monospace" font-size="14px" font-style="normal" font-weight="normal" text-decoration="normal" x="500.98016932441055" y="699.6169376128369" text-anchor="start" dominant-baseline="alphabetic">Choose Transaction[newBalance &gt;= 0]</text></g></g></svg>