<svg version="1.1" xmlns="http://www.w3.org/2000/svg" xmlns:xlink="http://www.w3.org/1999/xlink" width="102.07177352905273" height="86.33309936523438"><defs/><g transform="translate(-395.0823631286621,-159.35439205169678)"><g><path fill="white" stroke="#505050" paint-order="fill stroke markers" d=" M 396.0823631286621 192.68749141693115 L 396.0823631286621 236.68749141693115 Q 396.0823631286621 244.68749141693115 404.0823631286621 244.68749141693115 L 488.0823631286621 244.68749141693115 Q 496.0823631286621 244.68749141693115 496.0823631286621 236.68749141693115 L 496.0823631286621 192.68749141693115 Q 496.0823631286621 184.68749141693115 488.0823631286621 184.68749141693115 L 404.0823631286621 184.68749141693115 Q 396.0823631286621 184.68749141693115 396.0823631286621 192.68749141693115" stroke-miterlimit="10" stroke-width="0.5" stroke-dasharray=""/><path fill="none" stroke="#505050" paint-order="fill stroke markers" d=" M 396.0823631286621 204.68749141693115 L 496.0823631286621 204.68749141693115" stroke-miterlimit="10" stroke-width="0.5" stroke-dasharray=""/><text fill="#505050" stroke="none" font-family="monospace" font-size="14px" font-style="normal" font-weight="normal" text-decoration="normal" x="404.0823631286621" y="198.68749141693115" text-anchor="start" dominant-baseline="alphabetic">New State</text><path fill="#505050" stroke="#505050" paint-order="fill stroke markers" d=" M 414.90196990966797 168.42187404632568 A 8 8 0 1 1 414.9019659096683 168.41387404765902" stroke-miterlimit="10" stroke-width="0.25" stroke-dasharray=""/><path fill="white" stroke="#505050" paint-order="fill stroke markers" d=" M 441.34090423583984 168.35439205169678 A 8 8 0 1 1 441.3409002358402 168.34639205303012" stroke-miterlimit="10" stroke-width="0.25" stroke-dasharray=""/><path fill="#505050" stroke="none" paint-order="stroke fill markers" d=" M 437.34090423583984 168.35439205169678 A 4 4 0 1 1 437.34090223584 168.35039205236345"/><path fill="white" stroke="#505050" paint-order="fill stroke markers" d=" M 467.7762680053711 169.35937404632568 A 8 8 0 1 1 467.77626400537144 169.35137404765902" stroke-miterlimit="10" stroke-width="0.25" stroke-dasharray=""/><path fill="none" stroke="#505050" paint-order="fill stroke markers" d=" M 457.1096013387044 165.35937404632568 L 457.1096013387044 173.35937404632568 M 457.1096013387044 169.35937404632568 L 462.4429346720378 169.35937404632568 M 462.4429346720378 165.35937404632568 L 462.4429346720378 173.35937404632568" stroke-miterlimit="10" stroke-dasharray=""/><path fill="white" stroke="#505050" paint-order="fill stroke markers" d=" M 496.15413665771484 169.37001705169678 A 8 8 0 1 1 496.1541326577152 169.36201705303012" stroke-miterlimit="10" stroke-width="0.25" stroke-dasharray=""/><path fill="none" stroke="#505050" paint-order="fill stroke markers" d=" M 482.8208033243815 165.37001705169678 L 482.8208033243815 173.37001705169678 M 482.8208033243815 169.37001705169678 L 488.15413665771484 169.37001705169678 M 488.15413665771484 165.37001705169678 L 488.15413665771484 173.37001705169678 M 489.48746999104816 168.03668371836343 L 494.82080332438153 170.70335038503012 M 489.48746999104816 170.70335038503012 L 494.82080332438153 168.03668371836343 M 492.15413665771484 166.70335038503012 L 492.15413665771484 172.03668371836343" stroke-miterlimit="10" stroke-dasharray=""/></g></g></svg>