<svg version="1.1" xmlns="http://www.w3.org/2000/svg" xmlns:xlink="http://www.w3.org/1999/xlink" width="101" height="86.71449279785156"><defs/><g transform="translate(-327.8295211791992,-138.24146938323975)"><g><path fill="white" stroke="#505050" paint-order="fill stroke markers" d=" M 327.8295211791992 171.9559621810913 L 327.8295211791992 215.9559621810913 Q 327.8295211791992 223.9559621810913 335.8295211791992 223.9559621810913 L 419.8295211791992 223.9559621810913 Q 427.8295211791992 223.9559621810913 427.8295211791992 215.9559621810913 L 427.8295211791992 171.9559621810913 Q 427.8295211791992 163.9559621810913 419.8295211791992 163.9559621810913 L 335.8295211791992 163.9559621810913 Q 327.8295211791992 163.9559621810913 327.8295211791992 171.9559621810913" stroke-miterlimit="10" stroke-width="0.5" stroke-dasharray=""/><path fill="none" stroke="#505050" paint-order="fill stroke markers" d=" M 327.8295211791992 183.9559621810913 L 427.8295211791992 183.9559621810913" stroke-miterlimit="10" stroke-width="0.5" stroke-dasharray=""/><text fill="#505050" stroke="none" font-family="monospace" font-size="14px" font-style="normal" font-weight="normal" text-decoration="normal" x="335.8295211791992" y="177.9559621810913" text-anchor="start" dominant-baseline="alphabetic">New State</text><path fill="#505050" stroke="#505050" paint-order="fill stroke markers" d=" M 343.9041004180908 146.8664674758911 A 8 8 0 1 1 343.90409641809117 146.85846747722445" stroke-miterlimit="10" stroke-width="0.25" stroke-dasharray=""/><path fill="white" stroke="#505050" paint-order="fill stroke markers" d=" M 373.7734260559082 146.24146938323975 A 8 8 0 1 1 373.77342205590855 146.23346938457308" stroke-miterlimit="10" stroke-width="0.25" stroke-dasharray=""/><path fill="#505050" stroke="none" paint-order="stroke fill markers" d=" M 369.7734260559082 146.24146938323975 A 4 4 0 1 1 369.7734240559084 146.23746938390642"/><path fill="white" stroke="#505050" paint-order="fill stroke markers" d=" M 398.2166213989258 146.56107425689697 A 8 8 0 1 1 398.21661739892613 146.5530742582303" stroke-miterlimit="10" stroke-width="0.25" stroke-dasharray=""/><path fill="none" stroke="#505050" paint-order="fill stroke markers" d=" M 387.5499547322591 142.56107425689697 L 387.5499547322591 150.56107425689697 M 387.5499547322591 146.56107425689697 L 392.88328806559247 146.56107425689697 M 392.88328806559247 142.56107425689697 L 392.88328806559247 150.56107425689697" stroke-miterlimit="10" stroke-dasharray=""/><path fill="white" stroke="#505050" paint-order="fill stroke markers" d=" M 426.3565216064453 147.0759973526001 A 8 8 0 1 1 426.35651760644566 147.06799735393344" stroke-miterlimit="10" stroke-width="0.25" stroke-dasharray=""/><path fill="none" stroke="#505050" paint-order="fill stroke markers" d=" M 413.02318827311194 143.0759973526001 L 413.02318827311194 151.0759973526001 M 413.02318827311194 147.0759973526001 L 418.3565216064453 147.0759973526001 M 418.3565216064453 143.0759973526001 L 418.3565216064453 151.0759973526001 M 419.6898549397786 145.74266401926675 L 425.023188273112 148.40933068593344 M 419.6898549397786 148.40933068593344 L 425.023188273112 145.74266401926675 M 422.3565216064453 144.40933068593344 L 422.3565216064453 149.74266401926675" stroke-miterlimit="10" stroke-dasharray=""/></g></g></svg>